<?xml version="1.0" encoding="utf-8"?>
<!-- Generator: Adobe Illustrator 23.0.0, SVG Export Plug-In . SVG Version: 6.00 Build 0)  -->
<svg version="1.1" id="aa875589-0a8a-426c-b3d4-ebb2045b319d"
	 xmlns="http://www.w3.org/2000/svg" xmlns:xlink="http://www.w3.org/1999/xlink" x="0px" y="0px" viewBox="0 0 1053.4 822"
	 style="enable-background:new 0 0 1053.4 822;" xml:space="preserve">
<style type="text/css">
	.st0{fill:#0C0D09;}
	.st1{fill:#FFFFFF;}
</style>
<g>
	<g>
		<path d="M486.3,710.5c-103.6-2.4-209.9-34.8-299.7-112.9c-22.9-19.9-42.6-42.7-59.5-67.9c-4.5-6.6-8.1-13.6-0.5-20
			c7.3-6.1,12.6-1.1,18.4,3.9c45.1,39.7,98.8,62.6,156.3,76.7c153.7,37.7,306.2,35.1,456.2-18.6c36.9-13.2,70.8-32.2,100.3-58.5
			c5.5-4.9,11.7-9.4,18.7-2.7c6.8,6.5,2.9,12.9-1.3,19.1C828.6,598,764.7,644.3,688.7,674.9C628.2,699.3,565,710.3,486.3,710.5z"/>
		<path d="M72,517.7c0.8-30,25.6-54,55.1-53.3c8.2,0.2,17,1.2,17.2,12c0.1,10.7-7.7,11.7-16.6,11.7c-19.9-0.1-32.2,12.7-32.2,33.2
			c0,8.5-1.5,15.5-11.5,15.7c-10.3,0.2-11.6-7.5-11.9-15.5C72,520.2,72,519,72,517.7z"/>
		<path d="M924,519.5c-0.1,1.7-0.2,3.3-0.3,5c-0.3,7.8-3.9,13-12.2,12.6c-8.3-0.4-10.8-6-10.9-13.8c-0.5-24.4-10.8-34.5-35.3-35
			c-7.8-0.2-13.4-3.2-13.8-11.2c-0.5-8.2,5.3-11.3,12.8-12.5C894.6,460.1,924.1,487.1,924,519.5z"/>
	</g>
	<g>
		<g>
			<circle class="st0" cx="295.4" cy="200.9" r="87.6"/>
			<path class="st1" d="M264.1,178.8c-11.6,15.4-10,30.4-25.3,18.8c-15.3-11.5-18.3-33.4-6.7-48.8s33.4-18.6,48.7-7.1
				C296.2,153.3,275.7,163.4,264.1,178.8z"/>
		</g>
		<g>
			<circle class="st0" cx="700.6" cy="200.9" r="87.6"/>
			<path class="st1" d="M669.3,178.8c-11.6,15.4-10,30.4-25.3,18.8c-15.3-11.5-18.3-33.4-6.7-48.8s33.4-18.6,48.7-7.1
				C701.4,153.3,680.9,163.4,669.3,178.8z"/>
		</g>
	</g>
</g>
</svg>
